# xmcd
#
# Track frame offsets:
#	150
#	16815
#	34140
#
# Disc length: 833 seconds
#
# Revision: 0
# Processed by: cddbd v1.5.2PL0 Copyright (c) Steve Scherf et al.
# Submitted via: audiograbber 1.83.01
#
DISCID=18033f03
DTITLE=Taikapeili - Seuraa Johtajaa [CDS)
DYEAR=1994
DGENRE=Pop
TTITLE0=Seuraa Johtajaa
TTITLE1=Enkelin Siivet
TTITLE2=Jos Sulla On Toinen (Täyspitkä Remix)
EXTD=TR.
EXTT0=
EXTT1=
EXTT2=
PLAYORDER=
